<svg width="42" height="50" viewBox="0 0 42 50" fill="none" xmlns="http://www.w3.org/2000/svg">
<path d="M4.57076 47H1.12047V36.8182H4.64036C5.65125 36.8182 6.51962 37.022 7.24547 37.4297C7.97464 37.834 8.53477 38.4157 8.92587 39.1747C9.31697 39.9337 9.51252 40.8419 9.51252 41.8991C9.51252 42.9598 9.31531 43.8712 8.9209 44.6335C8.5298 45.3958 7.9647 45.9808 7.22559 46.3885C6.48979 46.7962 5.60485 47 4.57076 47ZM2.96493 45.4041H4.48127C5.19055 45.4041 5.78217 45.2749 6.25613 45.0163C6.73008 44.7545 7.08638 44.3651 7.32502 43.848C7.56365 43.3277 7.68297 42.678 7.68297 41.8991C7.68297 41.1203 7.56365 40.474 7.32502 39.9602C7.08638 39.4432 6.7334 39.0571 6.26607 38.8018C5.80205 38.5433 5.22535 38.4141 4.53596 38.4141H2.96493V45.4041ZM11.1855 47V39.3636H12.9305V40.6364H13.01C13.1492 40.1955 13.3879 39.8558 13.7259 39.6172C14.0673 39.3752 14.4568 39.2543 14.8943 39.2543C14.9937 39.2543 15.1047 39.2592 15.2274 39.2692C15.3533 39.2758 15.4577 39.2874 15.5406 39.304V40.9595C15.4643 40.933 15.3434 40.9098 15.1776 40.8899C15.0152 40.8667 14.8578 40.8551 14.7053 40.8551C14.3772 40.8551 14.0822 40.9264 13.8204 41.0689C13.5619 41.2081 13.358 41.402 13.2089 41.6506C13.0597 41.8991 12.9852 42.1858 12.9852 42.5107V47H11.1855ZM18.797 47.1541C18.3131 47.1541 17.8772 47.0679 17.4894 46.8956C17.105 46.7199 16.8 46.4614 16.5747 46.12C16.3526 45.7786 16.2416 45.3577 16.2416 44.8572C16.2416 44.4264 16.3211 44.0701 16.4802 43.7884C16.6393 43.5066 16.8564 43.2812 17.1315 43.1122C17.4066 42.9432 17.7165 42.8156 18.0612 42.7294C18.4092 42.6399 18.7688 42.5753 19.14 42.5355C19.5874 42.4891 19.9504 42.4477 20.2288 42.4112C20.5072 42.3714 20.7094 42.3118 20.8353 42.2322C20.9646 42.1494 21.0292 42.0218 21.0292 41.8494V41.8196C21.0292 41.4451 20.9182 41.1551 20.6961 40.9496C20.474 40.7441 20.1542 40.6413 19.7366 40.6413C19.2958 40.6413 18.9461 40.7375 18.6876 40.9297C18.4324 41.1219 18.26 41.349 18.1705 41.6108L16.4901 41.3722C16.6227 40.9081 16.8415 40.5204 17.1464 40.2088C17.4513 39.8939 17.8242 39.6586 18.265 39.5028C18.7058 39.3438 19.193 39.2642 19.7267 39.2642C20.0945 39.2642 20.4608 39.3073 20.8254 39.3935C21.19 39.4796 21.5231 39.6222 21.8247 39.821C22.1263 40.0166 22.3682 40.2834 22.5505 40.6214C22.7361 40.9595 22.8289 41.3821 22.8289 41.8892V47H21.0988V45.951H21.0392C20.9298 46.1631 20.7757 46.362 20.5768 46.5476C20.3812 46.7299 20.1343 46.8774 19.836 46.9901C19.541 47.0994 19.1947 47.1541 18.797 47.1541ZM19.2643 45.8317C19.6256 45.8317 19.9388 45.7604 20.2039 45.6179C20.4691 45.4721 20.6729 45.2798 20.8154 45.0412C20.9613 44.8026 21.0342 44.5424 21.0342 44.2607V43.3608C20.9778 43.4072 20.8817 43.4503 20.7458 43.4901C20.6133 43.5298 20.4641 43.5646 20.2984 43.5945C20.1327 43.6243 19.9686 43.6508 19.8062 43.674C19.6438 43.6972 19.5029 43.7171 19.3836 43.7337C19.1151 43.7701 18.8749 43.8298 18.6627 43.9126C18.4506 43.9955 18.2832 44.1115 18.1606 44.2607C18.038 44.4065 17.9767 44.5954 17.9767 44.8274C17.9767 45.1589 18.0976 45.4091 18.3396 45.5781C18.5815 45.7472 18.8898 45.8317 19.2643 45.8317ZM28.5065 39.3636V40.7557H23.9923V39.3636H28.5065ZM25.1208 47V38.6428C25.1208 38.129 25.2269 37.7015 25.439 37.3601C25.6544 37.0187 25.9428 36.7635 26.3041 36.5945C26.6653 36.4254 27.0664 36.3409 27.5072 36.3409C27.8187 36.3409 28.0955 36.3658 28.3374 36.4155C28.5794 36.4652 28.7584 36.5099 28.8744 36.5497L28.5164 37.9418C28.4402 37.9186 28.3441 37.8954 28.2281 37.8722C28.1121 37.8456 27.9828 37.8324 27.8403 37.8324C27.5055 37.8324 27.2686 37.9136 27.1294 38.076C26.9935 38.2351 26.9255 38.4638 26.9255 38.7621V47H25.1208ZM33.7291 39.3636V40.7557H29.3392V39.3636H33.7291ZM30.423 37.5341H32.2227V44.7031C32.2227 44.9451 32.2592 45.1307 32.3321 45.2599C32.4084 45.3859 32.5078 45.4721 32.6304 45.5185C32.753 45.5649 32.8889 45.5881 33.0381 45.5881C33.1508 45.5881 33.2535 45.5798 33.3463 45.5632C33.4424 45.5466 33.5154 45.5317 33.5651 45.5185L33.8683 46.9254C33.7722 46.9586 33.6347 46.995 33.4557 47.0348C33.28 47.0746 33.0646 47.0978 32.8094 47.1044C32.3586 47.1177 31.9526 47.0497 31.5914 46.9006C31.2301 46.7481 30.9434 46.5128 30.7313 46.1946C30.5225 45.8764 30.4197 45.4787 30.423 45.0014V37.5341ZM41.1604 41.3821L39.5198 41.5611C39.4734 41.3954 39.3922 41.2396 39.2762 41.0938C39.1635 40.9479 39.011 40.8303 38.8188 40.7408C38.6266 40.6513 38.3912 40.6065 38.1128 40.6065C37.7383 40.6065 37.4234 40.6877 37.1682 40.8501C36.9163 41.0125 36.7921 41.223 36.7954 41.4815C36.7921 41.7036 36.8733 41.8842 37.039 42.0234C37.208 42.1626 37.4864 42.277 37.8742 42.3665L39.1768 42.6449C39.8993 42.8007 40.4362 43.0476 40.7876 43.3857C41.1422 43.7237 41.3212 44.1662 41.3245 44.7131C41.3212 45.1937 41.1803 45.6179 40.9019 45.9858C40.6268 46.3504 40.244 46.6354 39.7535 46.8409C39.2629 47.0464 38.6995 47.1491 38.0631 47.1491C37.1285 47.1491 36.3761 46.9536 35.806 46.5625C35.2359 46.1681 34.8962 45.6196 34.7868 44.9169L36.5418 44.7479C36.6214 45.0926 36.7904 45.3527 37.0489 45.5284C37.3074 45.7041 37.6439 45.7919 38.0581 45.7919C38.4857 45.7919 38.8287 45.7041 39.0873 45.5284C39.3491 45.3527 39.48 45.1357 39.48 44.8771C39.48 44.6584 39.3955 44.4777 39.2265 44.3352C39.0608 44.1927 38.8022 44.0833 38.4509 44.0071L37.1483 43.7337C36.4159 43.5812 35.874 43.3243 35.5226 42.9631C35.1713 42.5985 34.9973 42.1378 35.0006 41.581C34.9973 41.1103 35.1249 40.7027 35.3834 40.358C35.6453 40.0099 36.0082 39.7415 36.4722 39.5526C36.9395 39.3603 37.4781 39.2642 38.088 39.2642C38.9829 39.2642 39.6872 39.4548 40.2009 39.8359C40.718 40.2171 41.0378 40.7325 41.1604 41.3821Z" fill="#101010"/>
<path d="M12.25 0C11.1626 0 10.1198 0.410892 9.35086 1.14228C8.58196 1.87368 8.15 2.86566 8.15 3.9V14.0536C8.8201 13.8732 9.50639 13.7524 10.2 13.6929V3.9C10.2 3.38283 10.416 2.88684 10.8004 2.52114C11.1849 2.15545 11.7063 1.95 12.25 1.95H26.6C27.1437 1.95 27.6651 2.15545 28.0496 2.52114C28.434 2.88684 28.65 3.38283 28.65 3.9V25.35H22.4549C22.3922 26.0098 22.2652 26.6626 22.0756 27.3H30.7C32.3311 27.3 33.8954 26.6837 35.0487 25.5866C36.2021 24.4895 36.85 23.0015 36.85 21.45V17.55H30.7V3.9C30.7 2.86566 30.268 1.87368 29.4991 1.14228C28.7302 0.410892 27.6874 0 26.6 0H12.25ZM30.7 25.35V19.5H34.8V21.45C34.8 22.4843 34.368 23.4763 33.5991 24.2077C32.8302 24.9391 31.7874 25.35 30.7 25.35ZM15.325 5.85C15.0532 5.85 14.7924 5.95272 14.6002 6.13557C14.408 6.31842 14.3 6.56641 14.3 6.825C14.3 7.08359 14.408 7.33158 14.6002 7.51443C14.7924 7.69728 15.0532 7.8 15.325 7.8H23.525C23.7968 7.8 24.0576 7.69728 24.2498 7.51443C24.442 7.33158 24.55 7.08359 24.55 6.825C24.55 6.56641 24.442 6.31842 24.2498 6.13557C24.0576 5.95272 23.7968 5.85 23.525 5.85H15.325ZM14.3 10.725C14.3 10.4664 14.408 10.2184 14.6002 10.0356C14.7924 9.85272 15.0532 9.75 15.325 9.75H23.525C23.7968 9.75 24.0576 9.85272 24.2498 10.0356C24.442 10.2184 24.55 10.4664 24.55 10.725C24.55 10.9836 24.442 11.2316 24.2498 11.4144C24.0576 11.5973 23.7968 11.7 23.525 11.7H15.325C15.0532 11.7 14.7924 11.5973 14.6002 11.4144C14.408 11.2316 14.3 10.9836 14.3 10.725ZM20.45 24.375C20.45 26.7023 19.4781 28.9342 17.7481 30.5799C16.018 32.2255 13.6716 33.15 11.225 33.15C8.77838 33.15 6.43196 32.2255 4.70194 30.5799C2.97192 28.9342 2 26.7023 2 24.375C2 22.0477 2.97192 19.8158 4.70194 18.1701C6.43196 16.5245 8.77838 15.6 11.225 15.6C13.6716 15.6 16.018 16.5245 17.7481 18.1701C19.4781 19.8158 20.45 22.0477 20.45 24.375V24.375ZM12.25 20.475C12.25 20.2164 12.142 19.9684 11.9498 19.7856C11.7576 19.6027 11.4968 19.5 11.225 19.5C10.9532 19.5 10.6924 19.6027 10.5002 19.7856C10.308 19.9684 10.2 20.2164 10.2 20.475V23.4H7.125C6.85315 23.4 6.59244 23.5027 6.40022 23.6856C6.20799 23.8684 6.1 24.1164 6.1 24.375C6.1 24.6336 6.20799 24.8816 6.40022 25.0644C6.59244 25.2473 6.85315 25.35 7.125 25.35H10.2V28.275C10.2 28.5336 10.308 28.7816 10.5002 28.9644C10.6924 29.1473 10.9532 29.25 11.225 29.25C11.4968 29.25 11.7576 29.1473 11.9498 28.9644C12.142 28.7816 12.25 28.5336 12.25 28.275V25.35H15.325C15.5968 25.35 15.8576 25.2473 16.0498 25.0644C16.242 24.8816 16.35 24.6336 16.35 24.375C16.35 24.1164 16.242 23.8684 16.0498 23.6856C15.8576 23.5027 15.5968 23.4 15.325 23.4H12.25V20.475Z" fill="black"/>
</svg>
