<svg width="48" height="51" viewBox="0 0 48 51" fill="none" xmlns="http://www.w3.org/2000/svg">
<path d="M1.23571 48V37.8182H7.85787V39.3643H3.08017V42.1286H7.51483V43.6747H3.08017V46.4538H7.89764V48H1.23571ZM11.4598 43.5256V48H9.66007V40.3636H11.3802V41.6612H11.4697C11.6454 41.2337 11.9255 40.8939 12.3099 40.642C12.6977 40.3902 13.1766 40.2642 13.7467 40.2642C14.2737 40.2642 14.7327 40.3769 15.1238 40.6023C15.5183 40.8277 15.8232 41.1541 16.0386 41.5817C16.2574 42.0092 16.3651 42.5279 16.3618 43.1378V48H14.5621V43.4162C14.5621 42.9058 14.4295 42.5064 14.1643 42.218C13.9025 41.9297 13.5396 41.7855 13.0756 41.7855C12.7607 41.7855 12.4806 41.8551 12.2354 41.9943C11.9934 42.1302 11.8028 42.3274 11.6636 42.5859C11.5277 42.8445 11.4598 43.1577 11.4598 43.5256ZM22.0045 40.3636V41.7557H17.6146V40.3636H22.0045ZM18.6984 38.5341H20.4981V45.7031C20.4981 45.9451 20.5346 46.1307 20.6075 46.2599C20.6837 46.3859 20.7832 46.4721 20.9058 46.5185C21.0284 46.5649 21.1643 46.5881 21.3135 46.5881C21.4262 46.5881 21.5289 46.5798 21.6217 46.5632C21.7178 46.5466 21.7907 46.5317 21.8405 46.5185L22.1437 47.9254C22.0476 47.9586 21.9101 47.995 21.7311 48.0348C21.5554 48.0746 21.34 48.0978 21.0848 48.1044C20.634 48.1177 20.228 48.0497 19.8667 47.9006C19.5055 47.7481 19.2188 47.5128 19.0067 47.1946C18.7979 46.8764 18.6951 46.4787 18.6984 46.0014V38.5341ZM23.5097 48V40.3636H25.2547V41.6364H25.3343C25.4735 41.1955 25.7121 40.8558 26.0502 40.6172C26.3915 40.3752 26.781 40.2543 27.2185 40.2543C27.3179 40.2543 27.4289 40.2592 27.5516 40.2692C27.6775 40.2758 27.7819 40.2874 27.8648 40.304V41.9595C27.7886 41.933 27.6676 41.9098 27.5019 41.8899C27.3395 41.8667 27.182 41.8551 27.0296 41.8551C26.7014 41.8551 26.4065 41.9264 26.1446 42.0689C25.8861 42.2081 25.6823 42.402 25.5331 42.6506C25.384 42.8991 25.3094 43.1858 25.3094 43.5107V48H23.5097ZM29.0605 48V40.3636H30.8602V48H29.0605ZM29.9653 39.2798C29.6802 39.2798 29.435 39.1854 29.2295 38.9964C29.024 38.8042 28.9213 38.5739 28.9213 38.3054C28.9213 38.0336 29.024 37.8033 29.2295 37.6143C29.435 37.4221 29.6802 37.326 29.9653 37.326C30.2536 37.326 30.4989 37.4221 30.7011 37.6143C30.9066 37.8033 31.0093 38.0336 31.0093 38.3054C31.0093 38.5739 30.9066 38.8042 30.7011 38.9964C30.4989 39.1854 30.2536 39.2798 29.9653 39.2798ZM36.0915 48.1491C35.3259 48.1491 34.6647 47.9901 34.1079 47.6719C33.5544 47.3504 33.1285 46.8963 32.8302 46.3097C32.5319 45.7197 32.3827 45.0253 32.3827 44.2266C32.3827 43.4411 32.5319 42.7517 32.8302 42.1584C33.1318 41.5618 33.5527 41.0978 34.093 40.7663C34.6332 40.4316 35.2679 40.2642 35.9971 40.2642C36.4677 40.2642 36.9118 40.3404 37.3295 40.4929C37.7504 40.642 38.1216 40.8741 38.4431 41.1889C38.7679 41.5038 39.0231 41.9048 39.2087 42.392C39.3943 42.8759 39.4871 43.4527 39.4871 44.1222V44.674H33.2279V43.4609H37.762C37.7587 43.1162 37.6841 42.8097 37.5383 42.5412C37.3924 42.2694 37.1886 42.0556 36.9268 41.8999C36.6682 41.7441 36.3666 41.6662 36.0219 41.6662C35.654 41.6662 35.3309 41.7557 35.0525 41.9347C34.7741 42.1103 34.557 42.3423 34.4012 42.6307C34.2487 42.9157 34.1708 43.2289 34.1675 43.5703V44.6293C34.1675 45.0734 34.2487 45.4545 34.4111 45.7727C34.5735 46.0876 34.8006 46.3295 35.0922 46.4986C35.3839 46.6643 35.7253 46.7472 36.1164 46.7472C36.3782 46.7472 36.6152 46.7107 36.8273 46.6378C37.0394 46.5616 37.2234 46.4505 37.3792 46.3047C37.5349 46.1589 37.6526 45.9782 37.7322 45.7628L39.4126 45.9517C39.3065 46.3958 39.1043 46.7836 38.806 47.1151C38.511 47.4432 38.1332 47.6984 37.6725 47.8807C37.2118 48.0597 36.6848 48.1491 36.0915 48.1491ZM47.0452 42.3821L45.4046 42.5611C45.3582 42.3954 45.277 42.2396 45.161 42.0938C45.0483 41.9479 44.8958 41.8303 44.7036 41.7408C44.5113 41.6513 44.276 41.6065 43.9976 41.6065C43.6231 41.6065 43.3082 41.6877 43.053 41.8501C42.8011 42.0125 42.6768 42.223 42.6801 42.4815C42.6768 42.7036 42.758 42.8842 42.9237 43.0234C43.0928 43.1626 43.3712 43.277 43.759 43.3665L45.0615 43.6449C45.7841 43.8007 46.321 44.0476 46.6723 44.3857C47.027 44.7237 47.2059 45.1662 47.2093 45.7131C47.2059 46.1937 47.0651 46.6179 46.7867 46.9858C46.5116 47.3504 46.1288 47.6354 45.6382 47.8409C45.1477 48.0464 44.5843 48.1491 43.9479 48.1491C43.0132 48.1491 42.2609 47.9536 41.6908 47.5625C41.1207 47.1681 40.781 46.6196 40.6716 45.9169L42.4266 45.7479C42.5061 46.0926 42.6752 46.3527 42.9337 46.5284C43.1922 46.7041 43.5286 46.7919 43.9429 46.7919C44.3705 46.7919 44.7135 46.7041 44.972 46.5284C45.2339 46.3527 45.3648 46.1357 45.3648 45.8771C45.3648 45.6584 45.2803 45.4777 45.1112 45.3352C44.9455 45.1927 44.687 45.0833 44.3357 45.0071L43.0331 44.7337C42.3006 44.5812 41.7587 44.3243 41.4074 43.9631C41.0561 43.5985 40.8821 43.1378 40.8854 42.581C40.8821 42.1103 41.0097 41.7027 41.2682 41.358C41.53 41.0099 41.893 40.7415 42.357 40.5526C42.8243 40.3603 43.3629 40.2642 43.9727 40.2642C44.8676 40.2642 45.5719 40.4548 46.0857 40.8359C46.6027 41.2171 46.9226 41.7325 47.0452 42.3821Z" fill="#101010"/>
<path d="M37.1663 3.64184L37.3393 3.72136L37.5214 3.66558L40.3438 2.80108V28.1562C40.3438 29.9432 39.0359 31.375 37.0859 31.375H36.2188C35.2175 31.375 34.1671 30.999 33.3725 30.3892C32.5754 29.7775 32.0938 28.9801 32.0938 28.1562V19.1283V18.6283H31.5938H15.9062V2.80108L18.7286 3.66558L18.9107 3.72136L19.0838 3.64184L21.1875 2.67525L23.2912 3.64184L23.5 3.73775L23.7087 3.64184L25.8125 2.67525L27.9163 3.64184L28.125 3.73775L28.3337 3.64184L30.4375 2.67525L32.5413 3.64184L32.75 3.73775L32.9587 3.64184L35.0625 2.67525L37.1663 3.64184ZM24.1925 15.946L24.2008 16.4375H24.6924H36.2188H36.7273L36.7187 15.929L36.6825 13.804L36.6742 13.3125H36.1826H24.6562H24.1477L24.1563 13.821L24.1925 15.946ZM19.5675 10.6335L19.5758 11.125H20.0674H36.2188H36.7273L36.7187 10.6165L36.6825 8.4915L36.6742 8H36.1826H20.0312H19.5227L19.5313 8.5085L19.5675 10.6335Z" fill="black" stroke="black"/>
<path d="M29.2812 28.1562V21.25H6.15625V23.375C6.15625 26.7318 6.57395 28.131 7.20121 29.1942C8.26568 30.9984 10.193 31.875 13.0938 31.875H31.5938C31.5938 31.875 29.2812 30.5469 29.2812 28.1562Z" fill="black"/>
</svg>
