<svg width="33" height="43" viewBox="0 0 33 43" fill="none" xmlns="http://www.w3.org/2000/svg">
<path d="M1.06383 39V28.8182H2.90829V37.4538H7.39267V39H1.06383ZM12.2449 39.1491C11.4992 39.1491 10.8529 38.9851 10.306 38.657C9.75914 38.3288 9.3349 37.8698 9.03329 37.2798C8.735 36.6899 8.58585 36.0005 8.58585 35.2116C8.58585 34.4228 8.735 33.7318 9.03329 33.1385C9.3349 32.5452 9.75914 32.0845 10.306 31.7564C10.8529 31.4283 11.4992 31.2642 12.2449 31.2642C12.9907 31.2642 13.637 31.4283 14.1839 31.7564C14.7307 32.0845 15.1533 32.5452 15.4516 33.1385C15.7532 33.7318 15.904 34.4228 15.904 35.2116C15.904 36.0005 15.7532 36.6899 15.4516 37.2798C15.1533 37.8698 14.7307 38.3288 14.1839 38.657C13.637 38.9851 12.9907 39.1491 12.2449 39.1491ZM12.2549 37.7074C12.6592 37.7074 12.9973 37.5964 13.2691 37.3743C13.5409 37.1489 13.743 36.8473 13.8756 36.4695C14.0115 36.0916 14.0795 35.6707 14.0795 35.2067C14.0795 34.7393 14.0115 34.3168 13.8756 33.9389C13.743 33.5578 13.5409 33.2545 13.2691 33.0291C12.9973 32.8037 12.6592 32.6911 12.2549 32.6911C11.8406 32.6911 11.4959 32.8037 11.2208 33.0291C10.949 33.2545 10.7452 33.5578 10.6093 33.9389C10.4767 34.3168 10.4104 34.7393 10.4104 35.2067C10.4104 35.6707 10.4767 36.0916 10.6093 36.4695C10.7452 36.8473 10.949 37.1489 11.2208 37.3743C11.4959 37.5964 11.8406 37.7074 12.2549 37.7074ZM20.7526 42.0227C20.1063 42.0227 19.5511 41.9349 19.0871 41.7592C18.6231 41.5869 18.2502 41.3549 17.9685 41.0632C17.6868 40.7715 17.4912 40.4484 17.3818 40.0938L19.0026 39.701C19.0755 39.8501 19.1816 39.9976 19.3208 40.1435C19.46 40.2926 19.6472 40.4152 19.8825 40.5114C20.1212 40.6108 20.4211 40.6605 20.7824 40.6605C21.2928 40.6605 21.7154 40.5362 22.0502 40.2876C22.3849 40.0424 22.5523 39.638 22.5523 39.0746V37.6278H22.4628C22.37 37.8134 22.2341 38.004 22.0551 38.1996C21.8795 38.3951 21.6458 38.5592 21.3541 38.6918C21.0658 38.8243 20.7029 38.8906 20.2654 38.8906C19.6787 38.8906 19.1468 38.7531 18.6695 38.478C18.1955 38.1996 17.8177 37.7853 17.536 37.2351C17.2575 36.6816 17.1183 35.9889 17.1183 35.157C17.1183 34.3184 17.2575 33.6108 17.536 33.0341C17.8177 32.4541 18.1972 32.0149 18.6744 31.7166C19.1517 31.415 19.6837 31.2642 20.2703 31.2642C20.7178 31.2642 21.0857 31.3404 21.374 31.4929C21.6657 31.642 21.8977 31.8227 22.07 32.0348C22.2424 32.2436 22.3733 32.4408 22.4628 32.6264H22.5622V31.3636H24.3371V39.1243C24.3371 39.7772 24.1813 40.3175 23.8698 40.745C23.5582 41.1726 23.1323 41.4924 22.5921 41.7045C22.0518 41.9167 21.4387 42.0227 20.7526 42.0227ZM20.7675 37.4787C21.1486 37.4787 21.4735 37.3859 21.7419 37.2003C22.0104 37.0147 22.2142 36.7479 22.3534 36.3999C22.4926 36.0518 22.5622 35.6342 22.5622 35.147C22.5622 34.6664 22.4926 34.2455 22.3534 33.8842C22.2175 33.523 22.0154 33.2429 21.7469 33.044C21.4817 32.8419 21.1553 32.7408 20.7675 32.7408C20.3664 32.7408 20.0317 32.8452 19.7632 33.054C19.4948 33.2628 19.2926 33.5495 19.1567 33.9141C19.0208 34.2753 18.9529 34.6863 18.9529 35.147C18.9529 35.6143 19.0208 36.0237 19.1567 36.375C19.2959 36.723 19.4997 36.9948 19.7682 37.1903C20.04 37.3826 20.3731 37.4787 20.7675 37.4787ZM32.2171 33.3821L30.5764 33.5611C30.53 33.3954 30.4488 33.2396 30.3328 33.0938C30.2201 32.9479 30.0677 32.8303 29.8754 32.7408C29.6832 32.6513 29.4479 32.6065 29.1695 32.6065C28.795 32.6065 28.4801 32.6877 28.2249 32.8501C27.973 33.0125 27.8487 33.223 27.852 33.4815C27.8487 33.7036 27.9299 33.8842 28.0956 34.0234C28.2646 34.1626 28.5431 34.277 28.9308 34.3665L30.2334 34.6449C30.9559 34.8007 31.4929 35.0476 31.8442 35.3857C32.1988 35.7237 32.3778 36.1662 32.3811 36.7131C32.3778 37.1937 32.2369 37.6179 31.9585 37.9858C31.6834 38.3504 31.3006 38.6354 30.8101 38.8409C30.3196 39.0464 29.7561 39.1491 29.1198 39.1491C28.1851 39.1491 27.4327 38.9536 26.8627 38.5625C26.2926 38.1681 25.9529 37.6196 25.8435 36.9169L27.5985 36.7479C27.678 37.0926 27.847 37.3527 28.1056 37.5284C28.3641 37.7041 28.7005 37.7919 29.1148 37.7919C29.5423 37.7919 29.8854 37.7041 30.1439 37.5284C30.4057 37.3527 30.5367 37.1357 30.5367 36.8771C30.5367 36.6584 30.4521 36.4777 30.2831 36.3352C30.1174 36.1927 29.8589 36.0833 29.5075 36.0071L28.205 35.7337C27.4725 35.5812 26.9306 35.3243 26.5793 34.9631C26.228 34.5985 26.0539 34.1378 26.0573 33.581C26.0539 33.1103 26.1816 32.7027 26.4401 32.358C26.7019 32.0099 27.0648 31.7415 27.5289 31.5526C27.9962 31.3603 28.5348 31.2642 29.1446 31.2642C30.0395 31.2642 30.7438 31.4548 31.2575 31.8359C31.7746 32.2171 32.0944 32.7325 32.2171 33.3821Z" fill="#101010"/>
<path d="M26.625 2.4375L24.9375 1.625L23.25 2.4375L21.5625 1.625L19.875 2.4375L18.1875 1.625L16.5 2.4375L14.8125 1.625L13.125 2.4375L10.5938 1.625V14.6275H22.4062V21.5312C22.4062 23.1019 24.1502 24.375 25.7812 24.375H26.4141C28.0451 24.375 29.1562 23.1019 29.1562 21.5312V1.625L26.625 2.4375ZM17.3701 12.1875L17.3438 10.5625H25.7549L25.7812 12.1875H17.3701ZM13.9951 8.125L13.9688 6.5H25.7549L25.7812 8.125H13.9951Z" fill="black"/>
<path d="M20.7188 21.5312V16.25H3.84375V17.875C3.84375 20.442 4.14855 21.512 4.60629 22.325C5.38307 23.7047 6.78949 24.375 8.90625 24.375H22.4062C22.4062 24.375 20.7188 23.3594 20.7188 21.5312Z" fill="black"/>
</svg>
