<svg width="41" height="39" viewBox="0 0 41 39" fill="none" xmlns="http://www.w3.org/2000/svg">
<path d="M12.2998 3.8999C11.2124 3.8999 10.1696 4.31079 9.40067 5.04219C8.63177 5.77358 8.1998 6.76556 8.1998 7.7999V17.9536C8.8699 17.7731 9.55619 17.6524 10.2498 17.5928V7.7999C10.2498 7.28273 10.4658 6.78674 10.8502 6.42104C11.2347 6.05535 11.7561 5.8499 12.2998 5.8499H26.6498C27.1935 5.8499 27.7149 6.05535 28.0994 6.42104C28.4838 6.78674 28.6998 7.28273 28.6998 7.7999V29.2499H22.5047C22.442 29.9097 22.315 30.5625 22.1255 31.1999H30.7498C32.3809 31.1999 33.9452 30.5836 35.0985 29.4865C36.2519 28.3894 36.8998 26.9014 36.8998 25.3499V21.4499H30.7498V7.7999C30.7498 6.76556 30.3178 5.77358 29.5489 5.04219C28.78 4.31079 27.7372 3.8999 26.6498 3.8999H12.2998ZM30.7498 29.2499V23.3999H34.8498V25.3499C34.8498 26.3842 34.4178 27.3762 33.6489 28.1076C32.88 28.839 31.8372 29.2499 30.7498 29.2499ZM15.3748 9.7499C15.103 9.7499 14.8422 9.85263 14.65 10.0355C14.4578 10.2183 14.3498 10.4663 14.3498 10.7249C14.3498 10.9835 14.4578 11.2315 14.65 11.4143C14.8422 11.5972 15.103 11.6999 15.3748 11.6999H23.5748C23.8467 11.6999 24.1074 11.5972 24.2996 11.4143C24.4918 11.2315 24.5998 10.9835 24.5998 10.7249C24.5998 10.4663 24.4918 10.2183 24.2996 10.0355C24.1074 9.85263 23.8467 9.7499 23.5748 9.7499H15.3748ZM14.3498 14.6249C14.3498 14.3663 14.4578 14.1183 14.65 13.9355C14.8422 13.7526 15.103 13.6499 15.3748 13.6499H23.5748C23.8467 13.6499 24.1074 13.7526 24.2996 13.9355C24.4918 14.1183 24.5998 14.3663 24.5998 14.6249C24.5998 14.8835 24.4918 15.1315 24.2996 15.3143C24.1074 15.4972 23.8467 15.5999 23.5748 15.5999H15.3748C15.103 15.5999 14.8422 15.4972 14.65 15.3143C14.4578 15.1315 14.3498 14.8835 14.3498 14.6249ZM20.4998 28.2749C20.4998 30.6022 19.5279 32.8341 17.7979 34.4798C16.0678 36.1254 13.7214 37.0499 11.2748 37.0499C8.82818 37.0499 6.48177 36.1254 4.75174 34.4798C3.02172 32.8341 2.0498 30.6022 2.0498 28.2749C2.0498 25.9476 3.02172 23.7157 4.75174 22.07C6.48177 20.4244 8.82818 19.4999 11.2748 19.4999C13.7214 19.4999 16.0678 20.4244 17.7979 22.07C19.5279 23.7157 20.4998 25.9476 20.4998 28.2749ZM12.2998 24.3749C12.2998 24.1163 12.1918 23.8683 11.9996 23.6855C11.8074 23.5026 11.5467 23.3999 11.2748 23.3999C11.003 23.3999 10.7422 23.5026 10.55 23.6855C10.3578 23.8683 10.2498 24.1163 10.2498 24.3749V27.2999H7.1748C6.90296 27.2999 6.64225 27.4026 6.45002 27.5855C6.2578 27.7683 6.1498 28.0163 6.1498 28.2749C6.1498 28.5335 6.2578 28.7815 6.45002 28.9643C6.64225 29.1472 6.90296 29.2499 7.1748 29.2499H10.2498V32.1749C10.2498 32.4335 10.3578 32.6815 10.55 32.8643C10.7422 33.0472 11.003 33.1499 11.2748 33.1499C11.5467 33.1499 11.8074 33.0472 11.9996 32.8643C12.1918 32.6815 12.2998 32.4335 12.2998 32.1749V29.2499H15.3748C15.6467 29.2499 15.9074 29.1472 16.0996 28.9643C16.2918 28.7815 16.3998 28.5335 16.3998 28.2749C16.3998 28.0163 16.2918 27.7683 16.0996 27.5855C15.9074 27.4026 15.6467 27.2999 15.3748 27.2999H12.2998V24.3749Z" fill="black"/>
</svg>
