<svg width="71" height="50" viewBox="0 0 71 50" fill="none" xmlns="http://www.w3.org/2000/svg">
<path d="M9.85778 36.8182V47H8.21715L3.41957 40.0646H3.33505V47H1.49059V36.8182H3.14116L7.93377 43.7585H8.02326V36.8182H9.85778ZM15.1687 47.1491C14.4031 47.1491 13.7418 46.9901 13.185 46.6719C12.6315 46.3504 12.2056 45.8963 11.9073 45.3097C11.609 44.7197 11.4599 44.0253 11.4599 43.2266C11.4599 42.4411 11.609 41.7517 11.9073 41.1584C12.2089 40.5618 12.6299 40.0978 13.1701 39.7663C13.7103 39.4316 14.3451 39.2642 15.0742 39.2642C15.5449 39.2642 15.989 39.3404 16.4066 39.4929C16.8275 39.642 17.1987 39.8741 17.5202 40.1889C17.8451 40.5038 18.1003 40.9048 18.2859 41.392C18.4715 41.8759 18.5643 42.4527 18.5643 43.1222V43.674H12.305V42.4609H16.8391C16.8358 42.1162 16.7612 41.8097 16.6154 41.5412C16.4696 41.2694 16.2657 41.0556 16.0039 40.8999C15.7454 40.7441 15.4438 40.6662 15.0991 40.6662C14.7312 40.6662 14.408 40.7557 14.1296 40.9347C13.8512 41.1103 13.6341 41.3423 13.4783 41.6307C13.3259 41.9157 13.248 42.2289 13.2447 42.5703V43.6293C13.2447 44.0734 13.3259 44.4545 13.4883 44.7727C13.6507 45.0876 13.8777 45.3295 14.1694 45.4986C14.4611 45.6643 14.8024 45.7472 15.1935 45.7472C15.4554 45.7472 15.6924 45.7107 15.9045 45.6378C16.1166 45.5616 16.3005 45.4505 16.4563 45.3047C16.6121 45.1589 16.7298 44.9782 16.8093 44.7628L18.4897 44.9517C18.3836 45.3958 18.1815 45.7836 17.8832 46.1151C17.5882 46.4432 17.2103 46.6984 16.7496 46.8807C16.2889 47.0597 15.762 47.1491 15.1687 47.1491ZM21.6218 47L19.4641 39.3636H21.2987L22.641 44.733H22.7106L24.0827 39.3636H25.8974L27.2695 44.7031H27.3441L28.6665 39.3636H30.506L28.3434 47H26.4691L25.0373 41.8395H24.9329L23.5011 47H21.6218ZM35.3148 47V36.8182H41.937V38.3643H37.1593V41.1286H41.5939V42.6747H37.1593V45.4538H41.9767V47H35.3148ZM45.5389 42.5256V47H43.7392V39.3636H45.4593V40.6612H45.5488C45.7245 40.2337 46.0046 39.8939 46.389 39.642C46.7768 39.3902 47.2557 39.2642 47.8258 39.2642C48.3528 39.2642 48.8118 39.3769 49.2029 39.6023C49.5974 39.8277 49.9023 40.1541 50.1177 40.5817C50.3365 41.0092 50.4442 41.5279 50.4409 42.1378V47H48.6412V42.4162C48.6412 41.9058 48.5086 41.5064 48.2434 41.218C47.9816 40.9297 47.6187 40.7855 47.1547 40.7855C46.8398 40.7855 46.5597 40.8551 46.3145 40.9943C46.0725 41.1302 45.8819 41.3274 45.7427 41.5859C45.6068 41.8445 45.5389 42.1577 45.5389 42.5256ZM56.0836 39.3636V40.7557H51.6937V39.3636H56.0836ZM52.7775 37.5341H54.5772V44.7031C54.5772 44.9451 54.6137 45.1307 54.6866 45.2599C54.7628 45.3859 54.8623 45.4721 54.9849 45.5185C55.1075 45.5649 55.2434 45.5881 55.3926 45.5881C55.5053 45.5881 55.608 45.5798 55.7008 45.5632C55.7969 45.5466 55.8699 45.5317 55.9196 45.5185L56.2228 46.9254C56.1267 46.9586 55.9892 46.995 55.8102 47.0348C55.6345 47.0746 55.4191 47.0978 55.1639 47.1044C54.7131 47.1177 54.3071 47.0497 53.9458 46.9006C53.5846 46.7481 53.2979 46.5128 53.0858 46.1946C52.877 45.8764 52.7742 45.4787 52.7775 45.0014V37.5341ZM57.5888 47V39.3636H59.3338V40.6364H59.4134C59.5526 40.1955 59.7912 39.8558 60.1293 39.6172C60.4706 39.3752 60.8601 39.2543 61.2976 39.2543C61.397 39.2543 61.508 39.2592 61.6307 39.2692C61.7566 39.2758 61.861 39.2874 61.9439 39.304V40.9595C61.8677 40.933 61.7467 40.9098 61.581 40.8899C61.4186 40.8667 61.2611 40.8551 61.1087 40.8551C60.7805 40.8551 60.4856 40.9264 60.2237 41.0689C59.9652 41.2081 59.7614 41.402 59.6122 41.6506C59.4631 41.8991 59.3885 42.1858 59.3885 42.5107V47H57.5888ZM64.4906 49.8636C64.2453 49.8636 64.0183 49.8438 63.8095 49.804C63.604 49.7675 63.4399 49.7244 63.3173 49.6747L63.7349 48.2727C63.9967 48.349 64.2304 48.3854 64.4359 48.3821C64.6414 48.3788 64.822 48.3142 64.9778 48.1882C65.1369 48.0656 65.2711 47.8601 65.3805 47.5717L65.5346 47.1591L62.7654 39.3636H64.6745L66.4345 45.1307H66.514L68.2789 39.3636H70.193L67.1355 47.9247C66.993 48.3291 66.804 48.6754 66.5687 48.9638C66.3334 49.2554 66.045 49.4775 65.7037 49.63C65.3656 49.7857 64.9612 49.8636 64.4906 49.8636Z" fill="#101010"/>
<path d="M26.25 0C25.1626 0 24.1198 0.410892 23.3509 1.14228C22.582 1.87368 22.15 2.86566 22.15 3.9V14.0536C22.8201 13.8732 23.5064 13.7524 24.2 13.6929V3.9C24.2 3.38283 24.416 2.88684 24.8004 2.52114C25.1849 2.15545 25.7063 1.95 26.25 1.95H40.6C41.1437 1.95 41.6651 2.15545 42.0496 2.52114C42.434 2.88684 42.65 3.38283 42.65 3.9V25.35H36.4549C36.3922 26.0098 36.2652 26.6626 36.0756 27.3H44.7C46.3311 27.3 47.8954 26.6837 49.0487 25.5866C50.2021 24.4895 50.85 23.0015 50.85 21.45V17.55H44.7V3.9C44.7 2.86566 44.268 1.87368 43.4991 1.14228C42.7302 0.410892 41.6874 0 40.6 0H26.25ZM44.7 25.35V19.5H48.8V21.45C48.8 22.4843 48.368 23.4763 47.5991 24.2077C46.8302 24.9391 45.7874 25.35 44.7 25.35ZM29.325 5.85C29.0532 5.85 28.7924 5.95272 28.6002 6.13557C28.408 6.31842 28.3 6.56641 28.3 6.825C28.3 7.08359 28.408 7.33158 28.6002 7.51443C28.7924 7.69728 29.0532 7.8 29.325 7.8H37.525C37.7968 7.8 38.0576 7.69728 38.2498 7.51443C38.442 7.33158 38.55 7.08359 38.55 6.825C38.55 6.56641 38.442 6.31842 38.2498 6.13557C38.0576 5.95272 37.7968 5.85 37.525 5.85H29.325ZM28.3 10.725C28.3 10.4664 28.408 10.2184 28.6002 10.0356C28.7924 9.85272 29.0532 9.75 29.325 9.75H37.525C37.7968 9.75 38.0576 9.85272 38.2498 10.0356C38.442 10.2184 38.55 10.4664 38.55 10.725C38.55 10.9836 38.442 11.2316 38.2498 11.4144C38.0576 11.5973 37.7968 11.7 37.525 11.7H29.325C29.0532 11.7 28.7924 11.5973 28.6002 11.4144C28.408 11.2316 28.3 10.9836 28.3 10.725ZM34.45 24.375C34.45 26.7023 33.4781 28.9342 31.7481 30.5799C30.018 32.2255 27.6716 33.15 25.225 33.15C22.7784 33.15 20.432 32.2255 18.7019 30.5799C16.9719 28.9342 16 26.7023 16 24.375C16 22.0477 16.9719 19.8158 18.7019 18.1701C20.432 16.5245 22.7784 15.6 25.225 15.6C27.6716 15.6 30.018 16.5245 31.7481 18.1701C33.4781 19.8158 34.45 22.0477 34.45 24.375V24.375ZM26.25 20.475C26.25 20.2164 26.142 19.9684 25.9498 19.7856C25.7576 19.6027 25.4968 19.5 25.225 19.5C24.9532 19.5 24.6924 19.6027 24.5002 19.7856C24.308 19.9684 24.2 20.2164 24.2 20.475V23.4H21.125C20.8532 23.4 20.5924 23.5027 20.4002 23.6856C20.208 23.8684 20.1 24.1164 20.1 24.375C20.1 24.6336 20.208 24.8816 20.4002 25.0644C20.5924 25.2473 20.8532 25.35 21.125 25.35H24.2V28.275C24.2 28.5336 24.308 28.7816 24.5002 28.9644C24.6924 29.1473 24.9532 29.25 25.225 29.25C25.4968 29.25 25.7576 29.1473 25.9498 28.9644C26.142 28.7816 26.25 28.5336 26.25 28.275V25.35H29.325C29.5968 25.35 29.8576 25.2473 30.0498 25.0644C30.242 24.8816 30.35 24.6336 30.35 24.375C30.35 24.1164 30.242 23.8684 30.0498 23.6856C29.8576 23.5027 29.5968 23.4 29.325 23.4H26.25V20.475Z" fill="black"/>
</svg>
